<svg id="Layer_1" data-name="Layer 1" xmlns="http://www.w3.org/2000/svg" viewBox="0 0 260 260"><defs><style>.cls-1{fill:#a68b6a;}.cls-2{fill:#fff;}</style></defs><title>favicon</title><circle class="cls-1" cx="130" cy="130" r="127"/><path class="cls-2" d="M125.94,226.57a48.73,48.73,0,0,1-19-3.62,38.66,38.66,0,0,1-14.56-10.51l10.15-9.66a29.42,29.42,0,0,0,22.58,10,31.62,31.62,0,0,0,15.58-3.8,27.45,27.45,0,0,0,10.75-10.57,32.39,32.39,0,0,0,0-30.67,27.45,27.45,0,0,0-10.75-10.57,31.73,31.73,0,0,0-15.58-3.8,29.58,29.58,0,0,0-22.58,9.9l-10.15-9.54a38.8,38.8,0,0,1,14.49-10.51,48.36,48.36,0,0,1,19-3.62,47.53,47.53,0,0,1,23.13,5.62,41.78,41.78,0,0,1,16.24,15.51,45.33,45.33,0,0,1,.06,44.69A41.35,41.35,0,0,1,149.06,221,47.52,47.52,0,0,1,125.94,226.57Z"/><path class="cls-2" d="M108.94,118.79a41.37,41.37,0,0,1-16.18-15.52A43,43,0,0,1,86.9,80.93a42.66,42.66,0,0,1,5.92-22.34,41.8,41.8,0,0,1,16.24-15.52,47.63,47.63,0,0,1,23.13-5.61,48.18,48.18,0,0,1,19,3.62,38.78,38.78,0,0,1,14.49,10.5l-10.15,9.54a29.58,29.58,0,0,0-22.58-9.9A31.62,31.62,0,0,0,117.33,55a27.43,27.43,0,0,0-10.75,10.56,30.42,30.42,0,0,0-3.86,15.34,30.42,30.42,0,0,0,3.86,15.34,27.36,27.36,0,0,0,10.75,10.56,31.62,31.62,0,0,0,15.58,3.81,29.39,29.39,0,0,0,22.58-10l10.15,9.67a38.63,38.63,0,0,1-14.56,10.5,48.55,48.55,0,0,1-19,3.63A47.63,47.63,0,0,1,108.94,118.79Z"/></svg>
