<svg xmlns="http://www.w3.org/2000/svg" viewBox="0 0 80.38 98.38"><defs><style>.cls-1{fill:#cddeeb;}.cls-2,.cls-7{fill:#3c2415;}.cls-3{fill:#a97c50;}.cls-4{fill:#efe1d8;}.cls-5,.cls-9{fill:#fff;}.cls-6{fill:#c49a6c;}.cls-7{opacity:0.5;}.cls-8{opacity:0.4;}.cls-9{opacity:0.45;}.cls-10{fill:#1a0f00;}.cls-11{fill:#d1d3d4;}</style></defs><title>cortado2</title><g id="Cortado"><path class="cls-1" d="M40.17,5h-.05L0,4.62a.53.53,0,0,0,0,.12c0,.1,0,.2,0,.32s0,.22,0,.34v.13L.06,6c0,.13,0,.26,0,.4C.15,7.55.25,9,.41,10.61c.67,6.76,1.26,7.7,1.83,12.62.25,2.15.52,4.8.76,7.89,0,0,0,.09,0,.13H3a.49.49,0,0,1,0,.12c0,.17,0,.34,0,.52l0,.52v.06c0,.05,0,.09,0,.13s0,.16,0,.23,0,.28,0,.41l0,.65-.06,1.44c0,.22,0,.43,0,.65q0,.67,0,1.32c0,.87,0,1.71,0,2.51,0,.37,0,.73,0,1.09s0,.66,0,1a.22.22,0,0,0,0,.08c0,.39,0,.78,0,1.16a.09.09,0,0,0,0,.07c0,.29,0,.58,0,.87a.41.41,0,0,0,0,.11s0,0,0,0a1.85,1.85,0,0,0,0,.24C3,45,3,45.5,3,46c0,.29.05.58.08.86.08.84.18,1.62.29,2.35,0,.13,0,.25.05.37a.77.77,0,0,0,0,.15q.21,1.43.48,2.61c.21,1,.44,1.85.68,2.62.06.19.14.45.3.94h0c0,.09.06.19.09.3.12.37.23.76.35,1.14a.53.53,0,0,1,0,.12c0,.14.08.28.13.43l0,.08c0,.07.05.14.07.22l.51,1.73c0,.12.07.25.11.38.08.32.18.68.29,1.07s.25.86.36,1.3c.23.82.45,1.65.66,2.48.11.42.22.84.32,1.25s.21.83.31,1.24Q8.61,69.3,9,71l.06.26c.06.26.12.51.17.77.57,2.49,1.06,4.93,1.49,7.3,0,.23.09.46.13.68a.31.31,0,0,1,0,.08c.74,4.06,1.32,7.92,1.77,11.56l0,.23v6.36h55V91.89c0-.42.1-.83.17-1.26.12-.94.25-1.9.39-2.86.7-4.91,1.64-10.18,2.88-15.73,0-.26.11-.51.17-.77l.06-.26Q72.58,65.41,74,60.4c.3-1,.6-2,.9-3,.11-.38.23-.77.35-1.14l.09-.3h0c.16-.49.24-.75.3-.94.24-.77.47-1.64.68-2.62A55.1,55.1,0,0,0,77.42,43c0-.14,0-.28,0-.42s0-.25,0-.38,0-.26,0-.39c0-.4,0-.8,0-1.21v-.16c0-.42,0-.84,0-1.28s0-1.1,0-1.68V37.3c0-.33,0-.67,0-1s0-.65,0-1c0-.9-.07-1.84-.12-2.81v-.13a.13.13,0,0,1,0-.06c0-.3,0-.62,0-.91v-.14s0-.08,0-.12c.11-1.48.23-2.85.36-4.12,0-.38.08-.75.11-1.11.06-.6.13-1.16.18-1.7,0-.29.07-.57.1-.84s0-.29,0-.43c.07-.54.13-1,.2-1.49s.12-.8.17-1.16c.4-2.57.84-4.38,1.42-9.67.07-.65.14-1.27.19-1.85a.38.38,0,0,0,0-.1c.09-.92.15-1.74.2-2.45q0-.46.06-.87c0-.21,0-.41,0-.59a.62.62,0,0,0,0-.13Zm0,41.76,0-.1v.19l0-.09,0,.09v-.19Zm0,9.07,0-.07v.13l0-.06,0,.06v-.13Zm0,28.61h0Zm0-1.57h-.05v0h.05Z"/><path class="cls-1" d="M40.17,5h-.05L0,4.62a.53.53,0,0,0,0,.12c0,.1,0,.2,0,.32s0,.22,0,.34v.13L.06,6c0,.13,0,.26,0,.4C.15,7.55.25,9,.41,10.61c.67,6.76,1.26,7.7,1.83,12.62.25,2.15.52,4.8.76,7.89,0,0,0,.09,0,.13H3a.49.49,0,0,1,0,.12c0,.17,0,.34,0,.52l0,.52v.06c0,.05,0,.09,0,.13s0,.16,0,.23,0,.28,0,.41l0,.65-.06,1.44c0,.22,0,.43,0,.65q0,.67,0,1.32c0,.87,0,1.71,0,2.51,0,.37,0,.73,0,1.09s0,.66,0,1a.22.22,0,0,0,0,.08c0,.39,0,.78,0,1.16a.09.09,0,0,0,0,.07c0,.29,0,.58,0,.87a.41.41,0,0,0,0,.11s0,0,0,0a1.85,1.85,0,0,0,0,.24C3,45,3,45.5,3,46c0,.29.05.58.08.86.08.84.18,1.62.29,2.35,0,.13,0,.25.05.37a.77.77,0,0,0,0,.15q.21,1.43.48,2.61c.21,1,.44,1.85.68,2.62.06.19.14.45.3.94h0c0,.09.06.19.09.3.12.37.23.76.35,1.14a.53.53,0,0,1,0,.12c0,.14.08.28.13.43l0,.08c0,.07.05.14.07.22l.51,1.73c0,.12.07.25.11.38.08.32.18.68.29,1.07s.25.86.36,1.3c.23.82.45,1.65.66,2.48.11.42.22.84.32,1.25s.21.83.31,1.24Q8.61,69.3,9,71l.06.26c.06.26.12.51.17.77.57,2.49,1.06,4.93,1.49,7.3,0,.23.09.46.13.68a.31.31,0,0,1,0,.08c.74,4.06,1.32,7.92,1.77,11.56l0,.23v6.36h55V91.89c0-.42.1-.83.17-1.26.12-.94.25-1.9.39-2.86.7-4.91,1.64-10.18,2.88-15.73,0-.26.11-.51.17-.77l.06-.26Q72.58,65.41,74,60.4c.3-1,.6-2,.9-3,.11-.38.23-.77.35-1.14l.09-.3h0c.16-.49.24-.75.3-.94.24-.77.47-1.64.68-2.62A55.1,55.1,0,0,0,77.42,43c0-.14,0-.28,0-.42s0-.25,0-.38,0-.26,0-.39c0-.4,0-.8,0-1.21v-.16c0-.42,0-.84,0-1.28s0-1.1,0-1.68V37.3c0-.33,0-.67,0-1s0-.65,0-1c0-.9-.07-1.84-.12-2.81v-.13a.13.13,0,0,1,0-.06c0-.3,0-.62,0-.91v-.14s0-.08,0-.12c.11-1.48.23-2.85.36-4.12,0-.38.08-.75.11-1.11.06-.6.13-1.16.18-1.7,0-.29.07-.57.1-.84s0-.29,0-.43c.07-.54.13-1,.2-1.49s.12-.8.17-1.16c.4-2.57.84-4.38,1.42-9.67.07-.65.14-1.27.19-1.85a.38.38,0,0,0,0-.1c.09-.92.15-1.74.2-2.45q0-.46.06-.87c0-.21,0-.41,0-.59a.62.62,0,0,0,0-.13Zm0,41.76,0-.1v.19l0-.09,0,.09v-.19Zm0,9.07,0-.07v.13l0-.06,0,.06v-.13Zm0,28.61h0Zm0-1.57h-.05v0h.05Z"/><path class="cls-2" d="M9,71.27c.06.26.12.52.17.77s.15.62.21.92l.18.86.18.83c.12.54.22,1.06.32,1.54.05.24.09.47.14.7s.07.33.1.49c.13.68.26,1.34.38,2q.75,4,1.3,7.77c.12.83.24,1.66.35,2.47s.2,1.5.29,2.24v0h55v.16c.46-3.67,1-7.58,1.78-11.69.25-1.37.51-2.76.8-4.17s.57-2.75.89-4.15c0-.26.11-.51.17-.77ZM40.17,84.59h0Zm0-1.57h-.05v0h.05Z"/><path class="cls-3" d="M78.05,22.91c.4-3.48.79-4.86,1.27-8.18H1c.45,3.13.88,4.61,1.29,8.18.25,2.18.53,4.88.77,8H3c0,.06,0,.12,0,.18s0,.09,0,.14,0,.13,0,.19S3,31.8,3,32A.13.13,0,0,1,3,32v.13l0,.68c0,.28,0,.55,0,.82,0,.06,0,.11,0,.16v.08c0,.14,0,.29,0,.43l0,1c0,.22,0,.43,0,.65q0,.67,0,1.32c0,.87,0,1.71,0,2.51,0,.37,0,.73,0,1.09l0,1.06c.05,1.37.13,2.65.23,3.82.06.65.12,1.29.19,1.91A44.08,44.08,0,0,0,4,52.34H3.87a23.5,23.5,0,0,0,.81,2.94l0,0c0,.11.08.23.12.37l.1.32h0l.1.3c.11.38.23.76.35,1.15.3,1,.6,2,.89,3,1,3.35,1.88,6.89,2.73,10.61.07.3.14.61.2.91h61.9c0-.26.11-.51.17-.77l0-.13c.85-3.72,1.77-7.26,2.72-10.61.3-1,.6-2.05.9-3,.12-.39.23-.77.35-1.15l.1-.3h0c.15-.48.23-.75.3-.94.25-.8.49-1.71.71-2.75h-.1A53.53,53.53,0,0,0,77.42,43c0-.14,0-.28,0-.42s0-.25,0-.38a.76.76,0,0,0,0-.15V41.8c0-.4,0-.8,0-1.21v-.16c0-.2,0-.4,0-.6v-.68c0-.54,0-1.1,0-1.68V37.3c0-.33,0-.67,0-1s0-.65,0-1c0-1-.07-2-.12-3.13V32a.13.13,0,0,1,0-.06c0-.26,0-.51,0-.76v-.09c0-.07,0-.13,0-.19h0C77.52,27.79,77.79,25.09,78.05,22.91ZM40.17,46.55l0-.09,0,.09v-.19l0,.1,0-.1ZM8.43,69.61c.19.76.37,1.52.55,2.3L9,72h.07Z"/><path class="cls-4" d="M80.38,4.3c-.07,1.28-.21,3.39-.5,6-.2,1.84-.38,3.27-.56,4.44H1C.77,13.56.59,12.14.41,10.29.15,7.69.05,5.58,0,4.3l40.12.4h.05Z"/><path class="cls-5" d="M11.49,28.88a4.74,4.74,0,0,1-3.68-1.61l2.1-1.18a2.12,2.12,0,0,0,1.62,1.07c.63,0,1-.3,1-.89,0-.77-1.31-1.61-2.51-2.61-1-.83-1.85-1.75-1.85-2.85,0-1.32,1.29-2.51,3.81-2.51a4.12,4.12,0,0,1,3.36,1.46l-1.94,1.12A1.85,1.85,0,0,0,12,20c-.7,0-1,.3-1,.72,0,.7.93,1.39,1.92,2.16,1.2.93,2.51,2,2.51,3.3C15.45,27.8,13.75,28.88,11.49,28.88Z"/><path class="cls-5" d="M21.28,20.14v8.57H18.46V20.14H16.38V18.47h7v1.67Z"/><path class="cls-5" d="M24.78,28.71V18.47H31.2v1.67H27.61v2.57h3.33v1.67H27.61V27h3.65v1.67Z"/><path class="cls-5" d="M39.1,28.71l-.45-1.62H35.89l-.45,1.62H32.63l3.76-10.24h1.88L42,28.71Zm-1.68-6.1a5.56,5.56,0,0,1-.14-.62l-.14.62-.85,3h2Z"/><path class="cls-5" d="M51.62,28.71V23.32c0-.21,0-.63,0-.67l-.34.66L49.7,26.23H48.19l-1.58-2.95c-.1-.17-.28-.56-.32-.63s0,.42,0,.64v5.42H43.56V18.47h2.63l2.54,4.24c.08.16.26.57.3.63a6.61,6.61,0,0,1,.33-.65l2.5-4.22h2.53V28.71Z"/><path class="cls-5" d="M56.4,28.71V18.47h6.43v1.67h-3.6v2.57h3.34v1.67H59.23V27h3.66v1.67Z"/><path class="cls-5" d="M68,28.71H64.87V18.47H68a4.91,4.91,0,0,1,5.07,5.12A4.91,4.91,0,0,1,68,28.71Zm0-8.52h-.35V27H68c1.72,0,2.14-1.9,2.14-3.4S69.76,20.19,68,20.19Z"/><path class="cls-6" d="M11.49,28.88a4.74,4.74,0,0,1-3.68-1.61l2.1-1.18a2.12,2.12,0,0,0,1.62,1.07c.63,0,1-.3,1-.89,0-.77-1.31-1.61-2.51-2.61-1-.83-1.85-1.75-1.85-2.85,0-1.32,1.29-2.51,3.81-2.51a4.12,4.12,0,0,1,3.36,1.46l-1.94,1.12A1.85,1.85,0,0,0,12,20c-.7,0-1,.3-1,.72,0,.7.93,1.39,1.92,2.16,1.2.93,2.51,2,2.51,3.3C15.45,27.8,13.75,28.88,11.49,28.88Z"/><path class="cls-6" d="M21.28,20.14v8.57H18.46V20.14H16.38V18.47h7v1.67Z"/><path class="cls-6" d="M24.78,28.71V18.47H31.2v1.67H27.61v2.57h3.33v1.67H27.61V27h3.65v1.67Z"/><path class="cls-6" d="M39.1,28.71l-.45-1.62H35.89l-.45,1.62H32.63l3.76-10.24h1.88L42,28.71Zm-1.68-6.1a5.56,5.56,0,0,1-.14-.62l-.14.62-.85,3h2Z"/><path class="cls-6" d="M51.62,28.71V23.32c0-.21,0-.63,0-.67l-.34.66L49.7,26.23H48.19l-1.58-2.95c-.1-.17-.28-.56-.32-.63s0,.42,0,.64v5.42H43.56V18.47h2.63l2.54,4.24c.08.16.26.57.3.63a6.61,6.61,0,0,1,.33-.65l2.5-4.22h2.53V28.71Z"/><path class="cls-6" d="M56.4,28.71V18.47h6.43v1.67h-3.6v2.57h3.34v1.67H59.23V27h3.66v1.67Z"/><path class="cls-6" d="M68,28.71H64.87V18.47H68a4.91,4.91,0,0,1,5.07,5.12A4.91,4.91,0,0,1,68,28.71Zm0-8.52h-.35V27H68c1.72,0,2.14-1.9,2.14-3.4S69.76,20.19,68,20.19Z"/><path class="cls-7" d="M71.29,71.14c.85-3.72,1.77-7.26,2.72-10.61.3-1,.6-2.05.9-3,.12-.39.23-.77.35-1.15l.1-.3h0c.15-.48.23-.75.3-.94.25-.8.49-1.71.71-2.75H3.87a23.5,23.5,0,0,0,.81,2.94l0,0,.12.37.1.32h0l.1.3c.11.38.23.76.35,1.15.3,1,.6,2,.89,3,1,3.35,1.88,6.89,2.73,10.61.07.3.14.61.2.91h61.9c0-.26.11-.51.17-.77Z"/><g class="cls-8"><path class="cls-5" d="M74,32.64a23.4,23.4,0,0,0-5.83-.85h-.35a23.27,23.27,0,0,0-5.73.72,22.11,22.11,0,0,1,5.72-.76h.34A22.25,22.25,0,0,1,74,32.64Z"/><path class="cls-5" d="M67.85,31.25a24,24,0,0,0-14.43,5v62h1V36.6a23.88,23.88,0,0,1,13.45-4.31h.34a23.08,23.08,0,0,1,9.23,2.12c0,.74,0,1.91.06,3.35v-.7c0-1.6,0-2.9,0-3.69a24.36,24.36,0,0,0-3.11-1.17,22.42,22.42,0,0,0-6.13-1Z"/></g><g class="cls-8"><path class="cls-5" d="M52.92,36.53h0v0ZM26.26,97V36.53h0V97ZM33,32.83a20.79,20.79,0,0,1,6.59-1.08,21.42,21.42,0,0,1,5.8.82A22.58,22.58,0,0,0,42.1,32l0,0h-.19a20.66,20.66,0,0,0-2.22-.13A22.2,22.2,0,0,0,33,32.83Z"/><path class="cls-5" d="M39.58,31.25A21.42,21.42,0,0,0,29.05,34l0,0c-.35.19-.67.39-1,.58l-.06,0a20.89,20.89,0,0,0-2.23,1.63V97.48h1v-61A21.92,21.92,0,0,1,39.6,32.29h.07a19.78,19.78,0,0,1,2.22.13H42a21.82,21.82,0,0,1,10.46,4.1v61H52v.77h1.42v-62c-.26-.22-.67-.56-1.23-1l0,0a21.78,21.78,0,0,0-12.47-4Z"/></g><g class="cls-8"><path class="cls-5" d="M5,32.66a22,22,0,0,1,2.42-.57A20.88,20.88,0,0,1,11,31.73h.34a22,22,0,0,1,5.7.76,23.1,23.1,0,0,0-5.71-.72H11a23.18,23.18,0,0,0-3.79.38c-.78.15-1.55.33-2.31.55Z"/><path class="cls-5" d="M11.33,31.23H11a22.81,22.81,0,0,0-6.13.95c-.7.21-1.34.44-1.92.66h0c0,.28,0,.55,0,.82,0,.06,0,.11,0,.16v.08h0a23.73,23.73,0,0,1,4.38-1.26A22.3,22.3,0,0,1,11,32.27h.34a23.88,23.88,0,0,1,13.45,4.31V98.23h1v-62a24,24,0,0,0-14.43-5Z"/></g><g class="cls-8"><rect class="cls-5" x="25.76" y="97.48" width="26.24" height="0.77"/><polygon class="cls-5" points="52 97.48 25.76 97.48 25.76 98.25 52 98.25 52 97.48 52 97.48"/></g><path class="cls-9" d="M80.38,4.76c0,.32,0,.69-.07,1.1,0-.41,0-.78.06-1.1Z"/><path class="cls-9" d="M80.38,4.61h0a.62.62,0,0,1,0,.13c0,.18,0,.38,0,.59s0,.33,0,.51l0,.36c0,.71-.11,1.53-.2,2.45a.38.38,0,0,1,0,.1c0,.62-.11,1.28-.19,2-.66,6-1.13,7.5-1.59,10.7-.07.46-.13.95-.2,1.49,0,.14,0,.28,0,.43s-.06.55-.1.84c0,.54-.12,1.1-.18,1.7,0,.36-.07.73-.11,1.11-.12,1.29-.25,2.7-.36,4.21a.49.49,0,0,1,0,.12v.05h0c0,.34,0,.69,0,1v.19c.09,1.67.14,3.22.17,4.68v.17c0,.58,0,1.14,0,1.68v.68c0,.2,0,.4,0,.6v.16c0,.41,0,.81,0,1.21V42a.76.76,0,0,1,0,.15,58,58,0,0,1-1.09,10.15c-.22,1-.46,1.95-.71,2.75-.07.19-.15.46-.3.94h0l-.1.3c-.12.38-.23.76-.35,1.15-.3,1-.6,2-.9,3-1,3.35-1.87,6.89-2.72,10.61l0,.13c-.06.26-.12.51-.17.77-.32,1.4-.62,2.79-.89,4.15s-.55,2.8-.8,4.17c-.75,4.07-1.33,8-1.78,11.61,0,0,0,0,0,.08v6.33H63.28V92.05s0-.11,0-.16c.75-6,1.85-12.71,3.46-19.85,0-.26.11-.51.17-.77l0-.13c.85-3.72,1.77-7.26,2.72-10.61.3-1,.6-2.05.9-3,.12-.39.23-.77.35-1.15L71,56h0c.15-.48.23-.75.3-.94.25-.8.49-1.71.71-2.75.88-4.14,1.44-10.29,1-19.72v-.19c0-.35,0-.7,0-1,.23-3.15.51-5.85.76-8,.42-3.63.83-5,1.34-8.63.16-1.08.32-2.37.5-4,.07-.68.14-1.33.19-1.94h0c0-.05,0-.1,0-.14H4.54s0,.09,0,.13c0,.61.11,1.26.18,1.94.16,1.62.32,2.91.47,4,.49,3.44.94,4.88,1.37,8.62.25,2.18.52,4.88.76,8,0,.12,0,.25,0,.38a.61.61,0,0,0,0,.14l0,.52v.06c0,.05,0,.09,0,.13-.47,9.44.09,15.6,1,19.73.22,1,.46,1.94.71,2.74l.3.94h0l.1.3c.11.38.23.76.35,1.15.3,1,.6,2,.89,3,1,3.35,1.88,6.89,2.73,10.61l0,.14c.06.26.12.51.17.77,1.61,7.14,2.7,13.81,3.46,19.85,0,0,0,.1,0,.15v6.33H12.67V92c0-.05,0-.1,0-.15v0c-.09-.74-.19-1.48-.29-2.24S12.13,88,12,87.16c-.38-2.5-.81-5.1-1.3-7.77-.15-.82-.31-1.66-.48-2.5-.05-.23-.09-.46-.14-.7-.11-.51-.21-1-.32-1.54l-.18-.83c-.13-.59-.26-1.18-.4-1.78-.06-.3-.13-.61-.2-.91-.85-3.72-1.77-7.26-2.73-10.61-.29-1-.59-2.05-.89-3-.12-.39-.24-.77-.35-1.15l-.1-.3h0l-.1-.32c0-.14-.08-.26-.12-.37l0,0c0-.08,0-.14-.06-.2-.25-.8-.49-1.71-.71-2.74-.14-.7-.28-1.46-.41-2.28C3.31,48.85,3.15,47.5,3,46c0-.5-.08-1-.11-1.56a1.85,1.85,0,0,1,0-.24s0,0,0,0a.41.41,0,0,1,0-.11c0-.29,0-.58,0-.87a.09.09,0,0,1,0-.07c0-.4,0-.82,0-1.24s0-.65,0-1,0-.72,0-1.09c0-.8,0-1.64,0-2.51q0-.64,0-1.32c0-.22,0-.43,0-.65l0-1c0-.29,0-.58,0-.88,0-.07,0-.14,0-.21l0-.64s0-.08,0-.13v-.06l0-.52c0-.18,0-.35,0-.52s0-.08,0-.12c-.24-3.1-.5-5.76-.75-7.91C1.67,18.43,1.08,17.49.4,10.73.33,10,.28,9.41.23,8.79c0-.21,0-.42-.05-.63C.14,7.55.1,7,.08,6.48V6.39c0-.14,0-.27,0-.4l0-.46V5.4c0-.12,0-.24,0-.34s0-.22,0-.32a.53.53,0,0,1,0-.12H0L40.12,5h.05Z"/><path class="cls-9" d="M0,5.41a.66.66,0,0,1,0-.14c0-.19,0-.36,0-.52H0C0,5,0,5.17,0,5.41Z"/><path class="cls-5" d="M1.72,13.85c-.1.16-.24.16-.41,0-.33-.25-.59-.79,0-1.76A56.21,56.21,0,0,1,8.52,4a.57.57,0,0,1,.76-.1c.92.55,1.18,1.11.57,2.38-.76,1.54-1.61,3.42-2.51,5.67,2.58-2.86,6-5.25,8.63-8,.21-.23.4-.24.68-.05,1,.66.71,1.54.07,2.35a56,56,0,0,0-5.2,7.64c-.09.16-.19.16-.37.05-.38-.21-.67-.69-.26-1.75a29.94,29.94,0,0,1,3.4-5.21,51.3,51.3,0,0,0-7.14,6.83.29.29,0,0,1-.42.12,1.52,1.52,0,0,1-.9-2,30.87,30.87,0,0,1,2-5.27A55.16,55.16,0,0,0,1.72,13.85Z"/><path class="cls-5" d="M14.85,11.56a19.06,19.06,0,0,1,3-3.91c.21-.19.38-.24.57-.09.35.25.54.94,0,1.75s-1.49,1.8-2,2.6-.52,1.56.23,1.53a4.62,4.62,0,0,0,3.08-2.21.23.23,0,0,1,.38,0c.18.26.11.6-.17,1a4.56,4.56,0,0,1-3.52,1.67C14.64,13.9,14.19,12.87,14.85,11.56Zm5.28-4.2a1.08,1.08,0,0,1-1.33-.24.76.76,0,0,1,.12-1.19,1.08,1.08,0,0,1,1.37.36A.73.73,0,0,1,20.13,7.36Z"/><path class="cls-5" d="M21.66,13.42c1.13.06,2.79-1.09,3.71-2.33.17-.21.43-.23.52,0a1.08,1.08,0,0,1-.24,1,5.61,5.61,0,0,1-3.94,1.78c-1.63,0-2.51-.8-2-2.54.87-2.79,3.57-5.7,6-7.41a.83.83,0,0,1,1-.08,1.31,1.31,0,0,1,.55,1.77c-.74,2-3.38,3.91-5.49,4.84C20.86,12,20.6,13.36,21.66,13.42Zm4.82-8.15c-.31-.12-2.05,1.66-3.69,3.71a7.57,7.57,0,0,0-.56.78C25.47,8,26.79,5.4,26.48,5.27Z"/><path class="cls-5" d="M31.33,7.17a1.63,1.63,0,0,1,1.94.71c.44.62.37,1.3-.5,1.88a9.06,9.06,0,0,1-3.29,1.3c.1,1.32.76,2.23,1.66,2.3s2.27-1.18,3-2.17c.14-.2.35-.21.47,0s.07.58-.28,1a4.43,4.43,0,0,1-3.53,1.69,2.79,2.79,0,0,1-3-3.1c0-.29,0-.34.5-.44,2.93-.66,4.49-2.05,4.13-2.47s-1.3-.11-2.55.54c-1.77.92-2.83,2.33-4.66,5.29a.27.27,0,0,1-.42,0c-.35-.27-.47-.78,0-1.76a47,47,0,0,1,6.68-8.7c.22-.19.45-.21.6,0,.35.48.3,1.12-.69,2.29-.57.66-1.49,1.79-2.13,2.58A6.45,6.45,0,0,1,31.33,7.17Z"/><path class="cls-5" d="M42.93,4.39c0-.13,0-.19.26-.19,2,.06,4.47-.4,5.79-.4a2.12,2.12,0,0,1,1.94.81c.07.13,0,.25-.29.25a39.71,39.71,0,0,0-4.86.45c-.83.91-1.94,2.21-3.1,3.66.61-.08,1.16-.11,1.58-.13,1.18-.05,1.78.29,2,.77.07.15,0,.24-.26.24a30.18,30.18,0,0,0-4.35.45c-.9,1.19-1.77,2.4-2.46,3.47-.09.16-.24.16-.4.07-.45-.26-.69-.77-.19-1.77a45.12,45.12,0,0,1,5.27-6.86A1.37,1.37,0,0,1,42.93,4.39Z"/><path class="cls-5" d="M53.87,10.42a5.77,5.77,0,0,1-3.73,3.39,3.38,3.38,0,0,1-3-.71c-1-.93-.69-2.33.38-3.62a5.58,5.58,0,0,1,3.75-2.09,1.94,1.94,0,0,1,1.61.55c.54.5,1.25.61,1.11,1.77,0,.13,0,.24,0,.37.14,0,.28,0,.47,0s.16.08.07.16A1.31,1.31,0,0,1,53.87,10.42Zm-2-.41A1.93,1.93,0,0,1,50.77,8.6,7,7,0,0,0,49,10.11c-1,1.22-1.34,2.7-.73,3.05s2.11-.19,3.26-1.67a7.4,7.4,0,0,0,.83-1.28A2.28,2.28,0,0,1,51.86,10Zm.81-1.43c-.12-.51-.6-.41-.71.05a1.07,1.07,0,0,0,.52,1.14A2.16,2.16,0,0,0,52.67,8.58Z"/><path class="cls-5" d="M62.78,7.46c.21-.21.4-.24.57-.1.35.29.54,1,0,1.79s-1.7,1.92-2.27,2.78-.61,1.59.19,1.55c1,0,2.27-1.12,3.1-2.23.12-.14.28-.16.38,0a1.07,1.07,0,0,1-.21,1A4.49,4.49,0,0,1,61.1,14c-1.27,0-1.94-.56-1.94-1.32a4.68,4.68,0,0,1-2.95,1.26c-2.2,0-2.65-2-.69-4s3.79-2.62,5-2.62c1,0,1.49.53,1.44,1.16A11.77,11.77,0,0,1,62.78,7.46Zm-1.89.66c-.76,0-2.48,1-3.78,2.42s-1.56,2.8-.64,2.82,2.2-1,3.4-2.43C61.36,9.16,61.57,8.17,60.89,8.12Z"/><path class="cls-5" d="M71.29,7.35a1.09,1.09,0,0,1,.92,1.57,8.42,8.42,0,0,1,3.5-1.49c.85,0,1,1,.56,1.76S74.69,11,74.1,11.78s-.33,1.66.52,1.64,2-1.08,2.95-2.2a.28.28,0,0,1,.43,0c.12.11,0,.64-.21,1a4.8,4.8,0,0,1-3.55,1.72c-2,0-2.81-1.11-1.94-2.43s3-3.13,2.63-3.21c-.19,0-1,.13-2.53,1.17a14.6,14.6,0,0,0-4.11,4.39.36.36,0,0,1-.55.08c-.4-.24-.73-.87,0-2,.78-1.33,3.34-3.55,2.86-3.66-.28-.08-1.44.35-3,1.48a14.53,14.53,0,0,0-3.47,4,.29.29,0,0,1-.45.08c-.52-.3-.64-.83-.24-1.65a25.06,25.06,0,0,1,3.71-4.79.31.31,0,0,1,.5,0,1.44,1.44,0,0,1,0,1.72A8.2,8.2,0,0,1,71.29,7.35Z"/><path class="cls-10" d="M28.52,90V74.69h3.24v3.25H30.45v2.72h1.19v3.2H30.45v2.87h1.34V90Z"/><path class="cls-10" d="M34.27,90.23c-1,0-1.65-1-2.11-2.48l1.07-2.49c.39,1.18.65,1.66.93,1.66s.34-.3.34-.82a4.64,4.64,0,0,0-.74-2.18,10.47,10.47,0,0,1-1.45-5.29c0-2.12.64-4.19,2-4.19.91,0,1.47,1,1.85,2.14L35.15,79c-.31-.88-.49-1.23-.73-1.23s-.29.25-.29.6a3.89,3.89,0,0,0,.67,2,10.58,10.58,0,0,1,1.53,5.49C36.33,88.45,35.44,90.23,34.27,90.23Z"/><path class="cls-10" d="M38.86,85.07l-.09,0V90H36.83V74.69h2c1.13,0,2.27,1.45,2.27,5.07S40.09,85,38.86,85.07Zm0-7.32-.09,0v4.16l.09,0c.31-.09.51-.7.51-2.14S39.16,77.81,38.84,77.75Z"/><path class="cls-10" d="M44,90l-.56-5v5H41.54V74.69h2c1.24,0,2.24,1.42,2.24,4.71a7.59,7.59,0,0,1-.73,3.69L46,90Zm-.53-12.22,0,0v4l0,0c.31-.11.53-.59.53-2S43.82,77.83,43.51,77.75Z"/><path class="cls-10" d="M46.45,90V74.69h3.24v3.25H48.38v2.72h1.19v3.2H48.38v2.87h1.34V90Z"/><path class="cls-10" d="M52.2,90.23c-1,0-1.65-1-2.11-2.48l1.07-2.49c.39,1.18.65,1.66.93,1.66s.34-.3.34-.82a4.64,4.64,0,0,0-.74-2.18,10.47,10.47,0,0,1-1.45-5.29c0-2.12.64-4.19,2-4.19.91,0,1.47,1,1.85,2.14L53.08,79c-.31-.88-.49-1.23-.73-1.23s-.29.25-.29.6a3.89,3.89,0,0,0,.67,2,10.58,10.58,0,0,1,1.53,5.49C54.26,88.45,53.37,90.23,52.2,90.23Z"/><path class="cls-10" d="M56.46,90.23c-1,0-1.65-1-2.11-2.48l1.07-2.49c.39,1.18.65,1.66.93,1.66s.34-.3.34-.82A4.64,4.64,0,0,0,56,83.92a10.47,10.47,0,0,1-1.45-5.29c0-2.12.64-4.19,2-4.19.91,0,1.47,1,1.85,2.14l-1,2.4c-.31-.88-.49-1.23-.73-1.23s-.29.25-.29.6a3.89,3.89,0,0,0,.67,2,10.58,10.58,0,0,1,1.53,5.49C58.52,88.45,57.63,90.23,56.46,90.23Z"/><path class="cls-10" d="M61.23,90.23c-1.5,0-2.48-3-2.48-7.9s1-7.89,2.48-7.89,2.48,3,2.48,7.89S62.72,90.23,61.23,90.23Zm0-12.4c-.4,0-.54,1.74-.54,4.5s.14,4.5.54,4.5.54-1.73.54-4.5S61.63,77.83,61.23,77.83Z"/><path class="cls-10" d="M16.09,80c-.28,0-.52-.34-.65-.8l.37-.58c.08.35.2.53.29.53s.18-.15.18-.44a3.79,3.79,0,0,0-.45-1.28,3.56,3.56,0,0,1-.33-1.4c0-.65.23-1.24.68-1.24.29,0,.47.32.59.72l-.34.55c-.07-.24-.14-.42-.25-.42S16,75.81,16,76a2.77,2.77,0,0,0,.34,1.07,3.68,3.68,0,0,1,.44,1.62C16.79,79.48,16.49,80,16.09,80Z"/><path class="cls-10" d="M17.1,79.93v-5h.5v5Z"/><path class="cls-10" d="M18.75,80c-.62,0-.86-1.41-.86-2.61s.24-2.6.86-2.6c.25,0,.44.24.57.6l-.3.8c0-.28-.14-.55-.27-.55-.28,0-.34,1-.34,1.75s.06,1.77.34,1.77c.07,0,.13,0,.17-.14V77.82h-.31v-.76h.78v2.2C19.25,79.71,19,80,18.75,80Z"/><path class="cls-10" d="M20.81,79.93l-.53-2.31-.06-.27s0,.15,0,.29v2.29h-.5v-5h.39l.56,2.49.05.25a1.72,1.72,0,0,1,0-.27V74.9h.5v5Z"/><path class="cls-10" d="M21.58,79.93v-5h.5v4.21h.62v.82Z"/><path class="cls-10" d="M23,79.93v-5h1.13v.82h-.63V77h.59v.82h-.59v1.31h.65v.82Z"/><path class="cls-10" d="M17.2,87.19c-.33,0-.61-.43-.76-1l.44-.73c.09.43.23.66.33.66s.21-.18.21-.55A4.94,4.94,0,0,0,16.9,84a4.57,4.57,0,0,1-.39-1.77c0-.82.27-1.56.8-1.56.34,0,.55.4.69.91l-.4.69c-.08-.3-.17-.53-.29-.53s-.2.19-.2.45a3.51,3.51,0,0,0,.4,1.34,4.9,4.9,0,0,1,.52,2C18,86.52,17.68,87.19,17.2,87.19Z"/><path class="cls-10" d="M19.5,87.09v-2.7H19v2.7h-.59V80.73H19v2.63h.52V80.73h.59v6.36Z"/><path class="cls-10" d="M21.44,87.19c-.73,0-1-1.77-1-3.28s.28-3.29,1-3.29,1,1.77,1,3.29S22.16,87.19,21.44,87.19Zm0-5.5c-.33,0-.4,1.28-.4,2.22s.07,2.21.4,2.21.4-1.28.4-2.21S21.76,81.69,21.44,81.69Z"/><path class="cls-10" d="M23.55,81.76v5.33H23V81.76h-.43v-1H24v1Z"/><path class="cls-2" d="M28.59,70.56V54.11H32.2v3.5H30.74v2.93h1.32V64H30.74v3.09h1.49v3.49Z"/><path class="cls-2" d="M35,70.84c-1.08,0-1.83-1.06-2.35-2.66l1.2-2.69c.43,1.27.72,1.78,1,1.78s.38-.31.38-.87a5,5,0,0,0-.82-2.35,11,11,0,0,1-1.62-5.7c0-2.28.72-4.51,2.27-4.51,1,0,1.63,1.06,2.05,2.3L36,58.73c-.34-.94-.55-1.33-.81-1.33s-.32.27-.32.66a4.14,4.14,0,0,0,.74,2.12,11,11,0,0,1,1.7,5.9C37.28,68.92,36.29,70.84,35,70.84Z"/><path class="cls-2" d="M40.1,65.29l-.1,0v5.25H37.84V54.11h2.25c1.26,0,2.53,1.56,2.53,5.46S41.46,65.25,40.1,65.29Zm0-7.89-.09,0v4.48l.09,0c.35-.09.58-.74.58-2.3S40.43,57.47,40.07,57.4Z"/><path class="cls-2" d="M45.86,70.56l-.63-5.38v5.38H43.08V54.11h2.27c1.38,0,2.49,1.54,2.49,5.07a7.91,7.91,0,0,1-.81,4l1,7.41ZM45.28,57.4l-.07,0v4.26l.07,0c.34-.11.58-.63.58-2.17S45.61,57.49,45.28,57.4Z"/><path class="cls-2" d="M48.54,70.56V54.11h3.61v3.5H50.7v2.93H52V64H50.7v3.09h1.48v3.49Z"/><path class="cls-2" d="M54.94,70.84c-1.08,0-1.83-1.06-2.35-2.66l1.2-2.69c.43,1.27.72,1.78,1,1.78s.38-.31.38-.87a5,5,0,0,0-.82-2.35,11,11,0,0,1-1.61-5.7c0-2.28.71-4.51,2.26-4.51,1,0,1.63,1.06,2,2.3l-1.16,2.59c-.34-.94-.55-1.33-.81-1.33s-.32.27-.32.66a4.14,4.14,0,0,0,.74,2.12,11,11,0,0,1,1.71,5.9C57.24,68.92,56.24,70.84,54.94,70.84Z"/><path class="cls-2" d="M59.68,70.84c-1.08,0-1.83-1.06-2.35-2.66l1.2-2.69c.43,1.27.72,1.78,1,1.78s.38-.31.38-.87a4.88,4.88,0,0,0-.82-2.35,11,11,0,0,1-1.61-5.7c0-2.28.71-4.51,2.26-4.51,1,0,1.63,1.06,2,2.3l-1.16,2.59c-.34-.94-.55-1.33-.81-1.33s-.32.27-.32.66a4.14,4.14,0,0,0,.74,2.12A11,11,0,0,1,62,66.08C62,68.92,61,70.84,59.68,70.84Z"/><path class="cls-2" d="M65,70.84c-1.67,0-2.75-3.25-2.75-8.5s1.08-8.5,2.75-8.5,2.76,3.25,2.76,8.5S66.65,70.84,65,70.84Zm0-13.35c-.45,0-.6,1.87-.6,4.85s.15,4.84.6,4.84.59-1.87.59-4.84S65.43,57.49,65,57.49Z"/><path class="cls-2" d="M11.82,61.11H11V54.6h.79c.87,0,1.27,1.71,1.27,3.26S12.69,61.11,11.82,61.11Zm0-5.41h-.08V60h.08c.43,0,.54-1.2.54-2.15S12.25,55.7,11.82,55.7Z"/><path class="cls-2" d="M14.61,61.22c-.87,0-1.21-1.81-1.21-3.36s.34-3.36,1.21-3.36,1.22,1.81,1.22,3.36S15.48,61.22,14.61,61.22Zm0-5.63c-.39,0-.48,1.31-.48,2.27s.09,2.26.48,2.26.48-1.31.48-2.26S15,55.59,14.61,55.59Z"/><path class="cls-2" d="M17.23,61.22c-.7,0-1-1-1-2.2V54.6h.7V59c0,.77.09,1.07.32,1.07s.31-.3.31-1.07V54.6h.71V59C18.25,60.26,17.92,61.22,17.23,61.22Z"/><path class="cls-2" d="M19.5,61.11h-.77V54.6h.71c.53,0,1.1.45,1.1,1.74a1.69,1.69,0,0,1-.55,1.4c.32.16.62.61.62,1.54C20.61,60.73,20,61.11,19.5,61.11Zm-.09-5.49v1.73c.27,0,.44-.38.44-.92S19.68,55.62,19.41,55.62Zm0,2.7v1.77c.32,0,.52-.3.52-.89S19.66,58.32,19.41,58.32Z"/><path class="cls-2" d="M21,61.11V54.6h.7v5.45h.88v1.06Z"/><path class="cls-2" d="M23,61.11V54.6h1.6v1.06h-.9v1.63h.84v1.06h-.84v1.7h.92v1.06Z"/><path class="cls-2" d="M14.72,68.28c-.42,0-.77-.37-1-.88l.56-.64c.11.38.29.58.43.58s.26-.16.26-.48a3.45,3.45,0,0,0-.67-1.42,3.16,3.16,0,0,1-.49-1.55c0-.71.34-1.36,1-1.36.44,0,.71.35.89.79l-.51.61c-.11-.26-.22-.46-.38-.46s-.25.16-.25.39A2.47,2.47,0,0,0,15.11,65a3.29,3.29,0,0,1,.66,1.79C15.77,67.69,15.32,68.28,14.72,68.28Z"/><path class="cls-2" d="M17.65,68.19V65.83H17v2.36h-.75V62.62H17v2.3h.67v-2.3h.75v5.57Z"/><path class="cls-2" d="M20.11,68.28c-.92,0-1.29-1.55-1.29-2.88s.37-2.87,1.29-2.87,1.29,1.55,1.29,2.87S21,68.28,20.11,68.28Zm0-4.81c-.42,0-.51,1.12-.51,1.93s.09,1.94.51,1.94.51-1.12.51-1.94S20.52,63.47,20.11,63.47Z"/><path class="cls-2" d="M22.79,63.53v4.66H22V63.53h-.55v-.91h1.85v.91Z"/><rect class="cls-11" x="12.62" y="91.89" width="55" height="6.36"/><rect class="cls-1" x="12.63" y="91.87" width="54.97" height="6.41"/><path class="cls-6" d="M23.94,50.11V43.19c0-.27.08-.81.08-.86l-.64.84-3,3.75H17.6l-2.91-3.78c-.18-.22-.52-.72-.59-.81s.07.54.07.82v7H9.06V37h4.85l4.7,5.44c.15.21.48.74.56.81a7.11,7.11,0,0,1,.59-.83L24.39,37h4.66V50.11Z"/><path class="cls-6" d="M32.78,50.11V37H38V50.11Z"/><path class="cls-6" d="M41.73,50.11V37H47V48H53.4v2.14Z"/><path class="cls-6" d="M66.19,50.11l-4.36-5.77-.49.44v5.33H56.12V37h5.22v4.43l5-4.43h5.45L65.3,42.24l6.48,7.87Z"/></g></svg>
