<svg id="Layer_1" data-name="Layer 1" xmlns="http://www.w3.org/2000/svg" viewBox="0 0 63 63"><defs><style>.cls-1{fill:#ac8b6a;}.cls-2{fill:#fff;}</style></defs><title>facebook</title><path id="Path_204" data-name="Path 204" class="cls-1" d="M31.5,63h0A31.5,31.5,0,0,1,0,31.5H0A31.5,31.5,0,0,1,31.5,0h0A31.5,31.5,0,0,1,63,31.5h0A31.5,31.5,0,0,1,31.5,63Z"/><g id="Group_129" data-name="Group 129"><path id="Path_237" data-name="Path 237" class="cls-2" d="M39,31.52H34.1V49H26.82V31.52H23.38V25.36h3.44v-4a8.74,8.74,0,0,1,.56-3.16,6.19,6.19,0,0,1,2.2-2.92A7.68,7.68,0,0,1,34.14,14l5.4,0v6H35.62a1.57,1.57,0,0,0-1,.32,1.69,1.69,0,0,0-.52,1.36v3.64h5.52Z"/></g></svg>
