<svg id="Layer_1" data-name="Layer 1" xmlns="http://www.w3.org/2000/svg" viewBox="0 0 63 63"><defs><style>.cls-1{fill:#ac8b6a;}.cls-2{fill:#fff;}</style></defs><title>instagram</title><g id="Group_33" data-name="Group 33"><path id="Path_34" data-name="Path 34" d="M18.38,22.64V15.08a1.1,1.1,0,0,1,.08-.54,1.68,1.68,0,0,1,.56-.26l.36-.08v8.44h1.44V14h.92v8.6h1.44V14H42.1a6.44,6.44,0,0,1,3.34.9,7.09,7.09,0,0,1,2.48,2.42,6.35,6.35,0,0,1,1,3.28c0,.66,0,1.46,0,2.4,0,2,0,2.79,0,2.44H38.18a.71.71,0,0,1-.56-.24,9.16,9.16,0,0,0-4-2.16,8.53,8.53,0,0,0-4.4,0,9.31,9.31,0,0,0-4,2.18.57.57,0,0,1-.4.2H14.3l-.2,0V23.88c0,.32,0-.3,0-1.84a16.08,16.08,0,0,1,.08-1.84,6.45,6.45,0,0,1,2.68-4.84l.16,0v7.32Zm20.4,3.88H48.9V42.24a6.58,6.58,0,0,1-.92,3.4A6.8,6.8,0,0,1,45.5,48.1a6.66,6.66,0,0,1-3.4.9H20.9a6.36,6.36,0,0,1-3.4-.88A7.15,7.15,0,0,1,15,45.64a6.48,6.48,0,0,1-.94-3.4V26.56H24.18a8.82,8.82,0,0,0-1.12,8.08,8.92,8.92,0,0,0,11,5.56,8.73,8.73,0,0,0,3.36-1.88,8.53,8.53,0,0,0,2.24-3.2A9,9,0,0,0,40.34,31a9.67,9.67,0,0,0-1.56-4.44Zm-7.28,12a7,7,0,0,1-3.48-.9,6.6,6.6,0,0,1-2.52-2.48A6.88,6.88,0,0,1,28,25.74a6.69,6.69,0,0,1,3.46-.94,6.62,6.62,0,0,1,3.44.94,6.94,6.94,0,0,1,2.5,2.52A6.82,6.82,0,0,1,35,37.59a6.91,6.91,0,0,1-3.47.93Zm5-6.84a5.05,5.05,0,1,0-7.6,4.38,4.84,4.84,0,0,0,2.54.7A4.94,4.94,0,0,0,34,36.08a5.07,5.07,0,0,0,1.84-1.84,5,5,0,0,0,.68-2.56Zm9.2-11.8V18a1.09,1.09,0,0,0-.3-.82,1.08,1.08,0,0,0-.78-.3q-1.84,0-3.72,0a1,1,0,0,0-.8.32,1.26,1.26,0,0,0-.28.84v3.68a1.09,1.09,0,0,0,.3.82,1.08,1.08,0,0,0,.78.3h3.68a1,1,0,0,0,1.12-.95V19.88Z"/></g><path id="Path_188" data-name="Path 188" class="cls-1" d="M31.5,63h0A31.5,31.5,0,0,1,0,31.5H0A31.5,31.5,0,0,1,31.5,0h0A31.5,31.5,0,0,1,63,31.5h0A31.5,31.5,0,0,1,31.5,63Z"/><g id="Group_145" data-name="Group 145"><path id="Path_253" data-name="Path 253" class="cls-2" d="M18.38,22.64V15.08a1.1,1.1,0,0,1,.08-.54,1.68,1.68,0,0,1,.56-.26l.36-.08v8.44h1.44V14h.92v8.6h1.44V14H42.1a6.44,6.44,0,0,1,3.34.9,7.09,7.09,0,0,1,2.48,2.42,6.35,6.35,0,0,1,1,3.28c0,.66,0,1.46,0,2.4,0,2,0,2.79,0,2.44H38.18a.71.71,0,0,1-.56-.24,9.16,9.16,0,0,0-4-2.16,8.53,8.53,0,0,0-4.4,0,9.31,9.31,0,0,0-4,2.18.57.57,0,0,1-.4.2H14.3l-.2,0V23.88c0,.32,0-.3,0-1.84a16.08,16.08,0,0,1,.08-1.84,6.45,6.45,0,0,1,2.68-4.84l.16,0v7.32Zm20.4,3.88H48.9V42.24a6.58,6.58,0,0,1-.92,3.4A6.8,6.8,0,0,1,45.5,48.1a6.66,6.66,0,0,1-3.4.9H20.9a6.36,6.36,0,0,1-3.4-.88A7.15,7.15,0,0,1,15,45.64a6.48,6.48,0,0,1-.94-3.4V26.56H24.18a8.82,8.82,0,0,0-1.12,8.08,8.92,8.92,0,0,0,11,5.56,8.73,8.73,0,0,0,3.36-1.88,8.53,8.53,0,0,0,2.24-3.2A9,9,0,0,0,40.34,31a9.67,9.67,0,0,0-1.56-4.44Zm-7.28,12a7,7,0,0,1-3.48-.9,6.6,6.6,0,0,1-2.52-2.48A6.88,6.88,0,0,1,28,25.74a6.69,6.69,0,0,1,3.46-.94,6.62,6.62,0,0,1,3.44.94,6.94,6.94,0,0,1,2.5,2.52A6.82,6.82,0,0,1,35,37.59a6.91,6.91,0,0,1-3.47.93Zm5-6.84a5.05,5.05,0,1,0-7.6,4.38,4.84,4.84,0,0,0,2.54.7A4.94,4.94,0,0,0,34,36.08a5.07,5.07,0,0,0,1.84-1.84,5,5,0,0,0,.68-2.56Zm9.2-11.8V18a1.09,1.09,0,0,0-.3-.82,1.08,1.08,0,0,0-.78-.3q-1.84,0-3.72,0a1,1,0,0,0-.8.32,1.26,1.26,0,0,0-.28.84v3.68a1.09,1.09,0,0,0,.3.82,1.08,1.08,0,0,0,.78.3h3.68a1,1,0,0,0,1.12-.95V19.88Z"/></g></svg>
