<svg id="Layer_1" data-name="Layer 1" xmlns="http://www.w3.org/2000/svg" viewBox="0 0 63 63"><defs><style>.cls-1{fill:#ac8b6a;}.cls-2{fill:#fff;}</style></defs><title>linkedin</title><g id="Group_39" data-name="Group 39"><path id="Path_40" data-name="Path 40" d="M46.3,14a2.54,2.54,0,0,1,1.84.74,2.4,2.4,0,0,1,.76,1.78v30a2.35,2.35,0,0,1-.76,1.76,2.52,2.52,0,0,1-1.8.72H16.66a2.52,2.52,0,0,1-1.8-.72,2.35,2.35,0,0,1-.76-1.76v-30a2.4,2.4,0,0,1,.76-1.78A2.54,2.54,0,0,1,16.7,14ZM24.18,24.58a2.79,2.79,0,0,0,0-3.92,2.87,2.87,0,0,0-2.12-.78,3,3,0,0,0-2.14.78,2.78,2.78,0,0,0,0,3.92,2.86,2.86,0,0,0,2.08.78h0A3,3,0,0,0,24.18,24.58Zm.48,2.94H19.42v15.8h5.24Zm18.92,6.72a7.66,7.66,0,0,0-1.72-5.36A6.22,6.22,0,0,0,34.38,28a6.25,6.25,0,0,0-1.56,1.72V27.52H27.58c0,.61,0,3.43,0,8.44v7.36h5.24V34.48A4,4,0,0,1,33,33.2a3.16,3.16,0,0,1,1-1.32,2.69,2.69,0,0,1,1.76-.6,2.3,2.3,0,0,1,2,1,4.68,4.68,0,0,1,.6,2.56v8.48h5.24Z"/></g><path id="Path_182" data-name="Path 182" class="cls-1" d="M31.5,63h0A31.5,31.5,0,0,1,0,31.5H0A31.5,31.5,0,0,1,31.5,0h0A31.5,31.5,0,0,1,63,31.5h0A31.5,31.5,0,0,1,31.5,63Z"/><g id="Group_151" data-name="Group 151"><path id="Path_259" data-name="Path 259" class="cls-2" d="M46.3,14a2.54,2.54,0,0,1,1.84.74,2.4,2.4,0,0,1,.76,1.78v30a2.35,2.35,0,0,1-.76,1.76,2.52,2.52,0,0,1-1.8.72H16.66a2.52,2.52,0,0,1-1.8-.72,2.35,2.35,0,0,1-.76-1.76v-30a2.4,2.4,0,0,1,.76-1.78A2.54,2.54,0,0,1,16.7,14ZM24.18,24.58a2.79,2.79,0,0,0,0-3.92,2.87,2.87,0,0,0-2.12-.78,3,3,0,0,0-2.14.78,2.78,2.78,0,0,0,0,3.92,2.86,2.86,0,0,0,2.08.78h0A3,3,0,0,0,24.18,24.58Zm.48,2.94H19.42v15.8h5.24Zm18.92,6.72a7.66,7.66,0,0,0-1.72-5.36A6.22,6.22,0,0,0,34.38,28a6.25,6.25,0,0,0-1.56,1.72V27.52H27.58c0,.61,0,3.43,0,8.44v7.36h5.24V34.48A4,4,0,0,1,33,33.2a3.16,3.16,0,0,1,1-1.32,2.69,2.69,0,0,1,1.76-.6,2.3,2.3,0,0,1,2,1,4.68,4.68,0,0,1,.6,2.56v8.48h5.24Z"/></g></svg>
