<svg id="Layer_1" data-name="Layer 1" xmlns="http://www.w3.org/2000/svg" viewBox="0 0 456.46 455.91"><defs><style>.cls-1{fill:#a68b6a;}.cls-2{fill:#fff;}</style></defs><title>logo_end</title><circle class="cls-1" cx="228.23" cy="227.95" r="225"/><path class="cls-2" d="M186.64,211.89a73.68,73.68,0,0,1-28.79-27.61q-10.42-17.62-10.43-39.76T158,104.76a74.48,74.48,0,0,1,28.91-27.61q18.38-10,41.15-10a86,86,0,0,1,33.74,6.44,68.75,68.75,0,0,1,25.79,18.7l-18.05,17Q253.16,91.66,229.3,91.66a56.39,56.39,0,0,0-27.72,6.76,48.87,48.87,0,0,0-19.13,18.81,54.05,54.05,0,0,0-6.87,27.29,54,54,0,0,0,6.87,27.29,48.74,48.74,0,0,0,19.13,18.81,56.39,56.39,0,0,0,27.72,6.77q23.87,0,40.19-17.84l18.05,17.19a68.63,68.63,0,0,1-25.89,18.7,86.64,86.64,0,0,1-33.85,6.45Q205,221.89,186.64,211.89Z"/><path class="cls-2" d="M256.61,258.93a73.64,73.64,0,0,1,28.8,27.61q10.43,17.63,10.42,39.76T285.3,366.06a74.45,74.45,0,0,1-28.9,27.61q-18.37,10-41.16,10a85.84,85.84,0,0,1-33.74-6.45,68.91,68.91,0,0,1-25.79-18.7l18.06-17q16.33,17.63,40.18,17.63a56.41,56.41,0,0,0,27.73-6.77,48.84,48.84,0,0,0,19.12-18.81,57.56,57.56,0,0,0,0-54.58,48.78,48.78,0,0,0-19.12-18.81A56.41,56.41,0,0,0,214,273.43q-23.85,0-40.18,17.84l-18.06-17.19a68.74,68.74,0,0,1,25.9-18.7,86.63,86.63,0,0,1,33.85-6.44Q238.25,248.94,256.61,258.93Z"/></svg>
