<svg id="Layer_1" data-name="Layer 1" xmlns="http://www.w3.org/2000/svg" viewBox="0 0 260 260"><defs><style>.cls-1{fill:#fff;}.cls-2{fill:#a68b6a;}</style></defs><title>logo</title><circle class="cls-1" cx="129.69" cy="129.5" r="125"/><circle class="cls-2" cx="129.69" cy="129.37" r="93.37"/><path class="cls-1" d="M124.85,200.36a36,36,0,0,1-14-2.66A28.33,28.33,0,0,1,100.17,190l7.45-7.1a21.62,21.62,0,0,0,16.6,7.37,23.24,23.24,0,0,0,11.46-2.8,20.12,20.12,0,0,0,7.9-7.76,23.82,23.82,0,0,0,0-22.56,20.12,20.12,0,0,0-7.9-7.76,23.24,23.24,0,0,0-11.46-2.8,21.77,21.77,0,0,0-16.6,7.28l-7.45-7a28.43,28.43,0,0,1,10.65-7.73,35.56,35.56,0,0,1,13.94-2.66,34.92,34.92,0,0,1,17,4.13A30.69,30.69,0,0,1,153.7,152a33.35,33.35,0,0,1,.05,32.85,30.43,30.43,0,0,1-11.9,11.4A34.92,34.92,0,0,1,124.85,200.36Z"/><path class="cls-1" d="M117.52,121.12a30.4,30.4,0,0,1-11.89-11.4,31.68,31.68,0,0,1-4.31-16.43,31.39,31.39,0,0,1,4.35-16.42,30.76,30.76,0,0,1,11.94-11.41,35,35,0,0,1,17-4.13A35.56,35.56,0,0,1,148.55,64a28.46,28.46,0,0,1,10.66,7.73l-7.46,7a21.76,21.76,0,0,0-16.6-7.28,23.27,23.27,0,0,0-11.46,2.8,20.14,20.14,0,0,0-7.9,7.77,23.8,23.8,0,0,0,0,22.55,20.28,20.28,0,0,0,7.9,7.77,23.37,23.37,0,0,0,11.46,2.79,21.6,21.6,0,0,0,16.6-7.37l7.46,7.11a28.45,28.45,0,0,1-10.7,7.72,35.69,35.69,0,0,1-14,2.66A34.93,34.93,0,0,1,117.52,121.12Z"/></svg>
