<svg id="Layer_1" data-name="Layer 1" xmlns="http://www.w3.org/2000/svg" viewBox="0 0 63 63"><defs><style>.cls-1{fill:#ac8b6a;}.cls-2{fill:#fff;}</style></defs><title>pinterest</title><path id="Path_167" data-name="Path 167" class="cls-1" d="M31.5,63h0A31.5,31.5,0,0,1,0,31.5H0A31.5,31.5,0,0,1,31.5,0h0A31.5,31.5,0,0,1,63,31.5h0A31.5,31.5,0,0,1,31.5,63Z"/><g id="Group_166" data-name="Group 166"><path id="Path_274" data-name="Path 274" class="cls-2" d="M39,15.68a11.49,11.49,0,0,1,4.44,4.2,10.67,10.67,0,0,1,1.6,5.64,17.3,17.3,0,0,1-1.38,7.06,11.83,11.83,0,0,1-3.78,4.9,9.43,9.43,0,0,1-5.68,1.84,6.37,6.37,0,0,1-3-.74A4.3,4.3,0,0,1,29.3,36.8l-1.4,5.52a17.06,17.06,0,0,1-2.08,4.4c-.35.56-.87,1.29-1.56,2.2A.3.3,0,0,1,24,49a.2.2,0,0,1-.18-.2,21.79,21.79,0,0,1,0-7.64l2.6-11-.16-.4a6.47,6.47,0,0,1-.32-1.12A8.21,8.21,0,0,1,25.78,27a6.38,6.38,0,0,1,.52-2.66,4.82,4.82,0,0,1,1.4-1.88,3,3,0,0,1,2-.7,2.44,2.44,0,0,1,2,.92,3,3,0,0,1,.64,2.12A9.19,9.19,0,0,1,32,26.92c-.11.48-.35,1.3-.72,2.48s-.56,1.94-.72,2.56a3.22,3.22,0,0,0,.12,1.94,3,3,0,0,0,1.18,1.42,3.4,3.4,0,0,0,1.86.52,4.67,4.67,0,0,0,3.36-1.48,9.71,9.71,0,0,0,2.22-3.86,16.73,16.73,0,0,0,.82-5.34,8,8,0,0,0-1-4,6.68,6.68,0,0,0-2.82-2.7,9.51,9.51,0,0,0-4.56-1,10,10,0,0,0-5.28,1.4,9,9,0,0,0-3.42,3.48,9.64,9.64,0,0,0-1.22,4.76,6,6,0,0,0,1.32,4,1.67,1.67,0,0,1,.34.52,1.35,1.35,0,0,1,0,.6l-.44,1.6a.72.72,0,0,1-.36.5.83.83,0,0,1-.64,0,6,6,0,0,1-3.08-3,10.17,10.17,0,0,1-1-4.72,11.33,11.33,0,0,1,1.6-5.76,12.86,12.86,0,0,1,4.8-4.8,15.65,15.65,0,0,1,8-2A13.45,13.45,0,0,1,39,15.68Z"/></g></svg>
