<svg id="Layer_1" data-name="Layer 1" xmlns="http://www.w3.org/2000/svg" viewBox="0 0 63 63"><defs><style>.cls-1{fill:#ac8b6a;}.cls-2{fill:#fff;}</style></defs><title>snapchat</title><path id="Path_131" data-name="Path 131" class="cls-1" d="M31.5,63h0A31.5,31.5,0,0,1,0,31.5H0A31.5,31.5,0,0,1,31.5,0h0A31.5,31.5,0,0,1,63,31.5h0A31.5,31.5,0,0,1,31.5,63Z"/><g id="Group_181" data-name="Group 181"><path id="Path_289" data-name="Path 289" class="cls-2" d="M49,40.1a12.47,12.47,0,0,1-.32,3A7.28,7.28,0,0,1,46.38,47a7.07,7.07,0,0,1-3.52,1.72,12.58,12.58,0,0,1-2.12.2q-3,0-8,0H22.54a12.2,12.2,0,0,1-3.44-.52A7.84,7.84,0,0,1,17,47.34a7.53,7.53,0,0,1-2.8-4.92A13.85,13.85,0,0,1,14,40.1V22.86a13.25,13.25,0,0,1,.36-3.32,7.26,7.26,0,0,1,1.84-3.2,7.1,7.1,0,0,1,2.72-1.76,9,9,0,0,1,2-.48c.3,0,.95,0,2-.08H40.06a12.68,12.68,0,0,1,3.36.36,7.24,7.24,0,0,1,4.64,3.76,6.71,6.71,0,0,1,.72,2.16,9.88,9.88,0,0,1,.16,1.88Zm-4.5-2.3a.57.57,0,0,0-.38-.22,6.43,6.43,0,0,1-3.88-2.32,7.92,7.92,0,0,1-1.28-2v0a1.09,1.09,0,0,1-.14-.88,1.26,1.26,0,0,1,.58-.56c.28-.11.56-.2.84-.28l.36-.16a3,3,0,0,0,1.06-.62A1,1,0,0,0,42,30a.85.85,0,0,0-.24-.6,1.81,1.81,0,0,0-.6-.42,1.43,1.43,0,0,0-.58-.12A1.29,1.29,0,0,0,40,29a3.14,3.14,0,0,1-1.08.32.66.66,0,0,1-.36-.08l0-.6a27.7,27.7,0,0,0,.08-2.8,6.57,6.57,0,0,0-.44-2.52,7.13,7.13,0,0,0-1.6-2.28,6.52,6.52,0,0,0-1.92-1.28,7.55,7.55,0,0,0-3-.6h-.52a7.73,7.73,0,0,0-3,.6,6.33,6.33,0,0,0-1.88,1.28,7.76,7.76,0,0,0-1.64,2.32,7.17,7.17,0,0,0-.4,2.48c0,.61,0,1.54.08,2.8l0,.6a1,1,0,0,1-.44.08A2.8,2.8,0,0,1,22.82,29a1.11,1.11,0,0,0-.44-.08,1.72,1.72,0,0,0-.8.2,1.07,1.07,0,0,0-.56.76.92.92,0,0,0,.4.88,2.82,2.82,0,0,0,1,.56l.4.16a4.46,4.46,0,0,1,.8.28,1.21,1.21,0,0,1,.62.56,1.06,1.06,0,0,1-.14.88v0c-.08.16-.2.39-.36.68a12.83,12.83,0,0,1-1,1.36,8.55,8.55,0,0,1-1.6,1.4,5.65,5.65,0,0,1-2.24.88.67.67,0,0,0-.4.22.49.49,0,0,0-.12.42,1.35,1.35,0,0,0,0,.28,1.68,1.68,0,0,0,.92.76,9.88,9.88,0,0,0,2.56.68,3.58,3.58,0,0,1,.16.56l.16.6a.62.62,0,0,0,.68.52,3.94,3.94,0,0,0,.6-.08,7.88,7.88,0,0,1,1.36-.16,6.37,6.37,0,0,1,1,.08,3.06,3.06,0,0,1,.94.36,8.07,8.07,0,0,1,.92.6,10.06,10.06,0,0,0,1.56,1,5.18,5.18,0,0,0,2.08.44h.32a5.11,5.11,0,0,0,2.08-.44,11.44,11.44,0,0,0,1.52-1,9.6,9.6,0,0,1,1-.6,2.91,2.91,0,0,1,.94-.36,6,6,0,0,1,.94-.08,7.33,7.33,0,0,1,1.4.16,3.09,3.09,0,0,0,.6.08.61.61,0,0,0,.68-.52l.16-.6c.08-.32.14-.52.16-.6a9.81,9.81,0,0,0,2.56-.64,1.47,1.47,0,0,0,.88-.76.57.57,0,0,0,.08-.28.6.6,0,0,0-.14-.42Z"/></g></svg>
