<svg id="Layer_1" data-name="Layer 1" xmlns="http://www.w3.org/2000/svg" viewBox="0 0 63 63"><defs><style>.cls-1{fill:#ac8b6a;}.cls-2{fill:#fff;}</style></defs><title>youtube</title><path id="Path_162" data-name="Path 162" class="cls-1" d="M31.5,63h0A31.5,31.5,0,0,1,0,31.5H0A31.5,31.5,0,0,1,31.5,0h0A31.5,31.5,0,0,1,63,31.5h0A31.5,31.5,0,0,1,31.5,63Z"/><g id="Group_212" data-name="Group 212"><path id="Path_320" data-name="Path 320" class="cls-2" d="M45.9,43.53a9.18,9.18,0,0,1-.74,3.14,3.46,3.46,0,0,1-1.58,1.58,4.07,4.07,0,0,1-1.18.38c-.41.07-1.17.14-2.26.22s-3.59.09-7.24.12-6.29,0-7.9,0-2.85-.13-3.7-.24a7,7,0,0,1-2-.54,3.05,3.05,0,0,1-1.18-1A6.43,6.43,0,0,1,17.6,46a10.44,10.44,0,0,1-.38-1.46A46.19,46.19,0,0,1,17,38.05a30.88,30.88,0,0,1,.46-5.76,4.34,4.34,0,0,1,1.26-2.36A4.13,4.13,0,0,1,21.12,29c1-.09,2.73-.17,5.1-.22s4.84-.07,7.4,0a67.32,67.32,0,0,1,9.2.42,3.38,3.38,0,0,1,2.08,1.44,7.48,7.48,0,0,1,1,3.22c.08.67.13,2,.16,4.16A46.91,46.91,0,0,1,45.9,43.53Zm-20.4-9.6V32.09H19.38v1.84h2v11.2h2V33.93ZM22.42,14.05l1,0a2.92,2.92,0,0,1,1,.08c0,.05.27.88.7,2.48s.65,2.4.68,2.4.21-.67.56-2l.84-3h1c.43,0,.71,0,.84,0s.19.05.16.1l-2.4,7.64v5.36h-2v-5.4Zm8,21.36H28.54v7.4l-.44.44a1.52,1.52,0,0,1-.54.4.36.36,0,0,1-.34-.12,1.55,1.55,0,0,1-.14-.82c0-.47,0-1.58,0-3.34v-4H25.22v4.2c0,1.68,0,2.81,0,3.4a5.8,5.8,0,0,0,.12,1.44,1.15,1.15,0,0,0,.38.56,1.34,1.34,0,0,0,.78.22,1.55,1.55,0,0,0,.82-.14,3.69,3.69,0,0,0,.74-.56l.44-.4v1h1.84V35.41Zm-1.3-9.68a3.55,3.55,0,0,1-.18-1.12c0-.4,0-1.18,0-2.34s0-1.95,0-2.38a3.67,3.67,0,0,1,.18-1.14,3,3,0,0,1,.46-.74,2.15,2.15,0,0,1,1.18-.7,3,3,0,0,1,1.48,0,2.24,2.24,0,0,1,1.18.72,2.64,2.64,0,0,1,.44.74A4.36,4.36,0,0,1,34,19.93c0,.43,0,1.2,0,2.32s0,2.07,0,2.46a7.55,7.55,0,0,1-.12.94,2.73,2.73,0,0,1-.66.92,2.63,2.63,0,0,1-1.82.74,3.93,3.93,0,0,1-.84-.18,2.12,2.12,0,0,1-1-.68,3,3,0,0,1-.5-.72Zm1.58-3.48c0,1.15,0,1.92,0,2.32a1.93,1.93,0,0,0,.18.88.62.62,0,0,0,.54.2,1.21,1.21,0,0,0,.38-.06.42.42,0,0,0,.26-.3,4.73,4.73,0,0,0,.12-.92c0-.4,0-1.09,0-2.08a16.7,16.7,0,0,0-.12-3,.75.75,0,0,0-1-.32.74.74,0,0,0-.31.32,16.26,16.26,0,0,0-.12,3Zm6.36,15a3.62,3.62,0,0,0-.36-1.36,1.46,1.46,0,0,0-.52-.5,1.3,1.3,0,0,0-.66-.22,1.73,1.73,0,0,0-.7.18,2.39,2.39,0,0,0-.72.5l-.48.4v-4.2H31.82v13h1.76v-.88l.4.36a3,3,0,0,0,.72.5,1.9,1.9,0,0,0,.82.12,1.75,1.75,0,0,0,.78-.18,1.48,1.48,0,0,0,.52-.64,2.71,2.71,0,0,0,.2-.84c0-.32,0-1.27,0-2.84,0-1.73,0-2.88,0-3.44Zm-1.94,0a3.63,3.63,0,0,1,.14,1v2.24l0,2.72-.28.24a.72.72,0,0,1-.42.2,1.31,1.31,0,0,1-.54-.2l-.36-.2v-6l.44-.24.4-.16a.5.5,0,0,1,.32,0,.52.52,0,0,1,.34.34Zm.42-11.68c0-.49,0-1.78,0-3.86l0-4.44h1.84v4.08c0,1.76,0,2.89,0,3.38a2.27,2.27,0,0,0,.12.82q.36.29,1-.36l.36-.36V17.29h1.84v9.84H38.74v-1l-.48.4a2.54,2.54,0,0,1-.74.56,1.89,1.89,0,0,1-.74.12,1.34,1.34,0,0,1-.68-.14,1.25,1.25,0,0,1-.44-.5,3,3,0,0,1-.16-1Zm8.16,16.14H41.74v.6a3,3,0,0,1-.08.78.83.83,0,0,1-.34.44.59.59,0,0,1-.56.08,1,1,0,0,1-.5-.42,2.31,2.31,0,0,1-.12-.52,8.36,8.36,0,0,1,0-1V40.57h3.52V39.13a8.43,8.43,0,0,0-.16-1.94,2.69,2.69,0,0,0-.58-1.06,2.54,2.54,0,0,0-.88-.68,2.31,2.31,0,0,0-1.1-.16,2.83,2.83,0,0,0-1,.14,2.3,2.3,0,0,0-.8.5,2.2,2.2,0,0,0-.58.8,4.62,4.62,0,0,0-.26,1.32c0,.53,0,1.37,0,2.52s.05,1.79.08,2.18a2.3,2.3,0,0,0,.16.82A2.48,2.48,0,0,0,39.74,45a2.39,2.39,0,0,0,1.2.28,3.26,3.26,0,0,0,1.2-.2,2.27,2.27,0,0,0,1.06-.9,3.47,3.47,0,0,0,.38-1.58ZM40.1,39.09v-.72a2.15,2.15,0,0,1,.26-1.24.82.82,0,0,1,.84-.2c.39.08.58.56.58,1.44v.72Z"/></g></svg>
